<svg width="375" height="667" viewBox="0 0 375 667" fill="none" xmlns="http://www.w3.org/2000/svg">
<path fill-rule="evenodd" clip-rule="evenodd" d="M375 0H0V667H375V0ZM266.133 165C266.133 197.007 247.321 224.569 220.274 236.982L269.305 266.394C276.25 270.56 281.357 277.205 283.596 284.988L361.98 557.438C373.749 598.347 343.044 639.133 300.475 639.133H75.4044C32.3129 639.133 1.53529 597.409 14.2571 556.238L45.2293 456.005L98.3731 284.019C100.597 276.822 105.288 270.641 111.621 266.563L156.85 237.436C129.263 225.251 109.982 197.404 109.982 165C109.982 121.37 144.938 86 188.058 86C231.177 86 266.133 121.37 266.133 165Z" fill="black" fill-opacity="0.8"/>
</svg>
