<svg width="72" height="89" viewBox="0 0 72 89" fill="none" xmlns="http://www.w3.org/2000/svg">
<path d="M33.6444 13.7214V9.84546H38.3706V13.7214L36.0075 17.2218L33.6444 13.7214Z" fill="#E5D1B7"/>
<path d="M39.9387 6.12046C40.1153 5.79655 40.6159 5.70821 40.8883 5.95851C41.0908 6.14255 41.1497 6.44437 41.1349 6.72044C41.1165 7.18054 40.9399 7.62224 40.7521 8.04185C40.6491 8.27006 40.5423 8.49828 40.3804 8.68232C40.2184 8.87004 39.9902 9.01727 39.7436 9.032C39.681 9.03568 39.6148 9.032 39.5632 8.99887C39.427 8.91789 39.4307 8.72281 39.4565 8.56821C39.5779 7.76947 39.5227 6.89712 39.9387 6.12046Z" fill="#E5D1B7"/>
<path d="M32.0727 6.12046C31.8961 5.79655 31.3955 5.70821 31.1231 5.95851C30.9206 6.14255 30.8617 6.44437 30.8765 6.72044C30.8949 7.18054 31.0716 7.62224 31.2593 8.04185C31.3623 8.27006 31.4691 8.49828 31.631 8.68232C31.793 8.87004 32.0212 9.01727 32.2678 9.032C32.3304 9.03568 32.3967 9.032 32.4482 8.99887C32.5844 8.91789 32.5807 8.72281 32.5549 8.56821C32.4371 7.76947 32.4887 6.89712 32.0727 6.12046Z" fill="#E5D1B7"/>
<path d="M31.8077 6.0542C31.8077 2.76723 32.7647 0.105988 36.0076 0.105988C39.3608 0.105988 40.2074 2.77091 40.2074 6.0542C40.2074 9.3375 37.9878 11.4135 36.0076 12.0024C34.0236 11.5129 31.8077 9.3375 31.8077 6.0542Z" fill="#E5D1B7"/>
<path d="M36.0039 8.34366C36.0002 8.34366 35.9929 8.34366 35.9855 8.34366C35.7094 8.32894 35.4518 8.13017 35.3303 7.83571C35.2383 7.61486 35.2346 7.37929 35.2346 7.19156L35.2162 5.92536C35.2125 5.5904 35.1757 5.19287 34.9475 5.06773C34.8408 5.00883 34.6862 5.00883 34.5316 5.01619C34.0825 5.0346 33.6334 5.10822 33.1991 5.23336C33.0445 5.27753 32.8826 5.18919 32.8384 5.0346C32.7942 4.88 32.8826 4.71805 33.0372 4.67388C33.5157 4.53769 34.0089 4.45671 34.5058 4.43462C34.7451 4.42358 34.9954 4.43094 35.2272 4.55609C35.7867 4.8616 35.7941 5.60144 35.8015 5.918L35.8199 7.1842C35.8235 7.3388 35.8235 7.49707 35.8714 7.61486C35.9045 7.69216 35.9671 7.75841 36.0186 7.76209C36.1806 7.76945 36.3021 7.90932 36.2947 8.0676C36.2836 8.22219 36.1585 8.34366 36.0039 8.34366Z" fill="#282827"/>
<path d="M38.8675 5.16712C38.8123 5.16712 38.7571 5.1524 38.7093 5.11927C38.459 4.95731 38.1093 4.95363 37.7081 4.96467C37.4725 4.97204 37.2811 4.98676 37.1523 5.0751C37.0198 5.16712 36.8394 5.13031 36.7474 4.9978C36.6554 4.86529 36.6922 4.68493 36.8247 4.59291C37.1044 4.40151 37.4431 4.39047 37.6897 4.3831C38.0725 4.37206 38.5988 4.35366 39.0258 4.62972C39.162 4.71806 39.1988 4.89842 39.1105 5.03093C39.059 5.11927 38.9632 5.16712 38.8675 5.16712Z" fill="#282827"/>
<path d="M37.9695 6.91552C37.6787 6.91552 37.4026 6.84558 37.156 6.78301C37.0014 6.74252 36.9057 6.58424 36.9462 6.42965C36.9867 6.27506 37.145 6.17935 37.2996 6.21984C37.5388 6.28242 37.7891 6.34499 38.0173 6.33395C38.2345 6.3229 38.4185 6.24193 38.5142 6.11678C38.6099 5.98795 38.794 5.96218 38.9228 6.06157C39.0516 6.15727 39.0774 6.34131 38.978 6.47014C38.7756 6.73516 38.4332 6.9008 38.0431 6.91552C38.0173 6.91552 37.9952 6.91552 37.9695 6.91552Z" fill="#282827"/>
<path d="M33.7438 6.9155C33.7181 6.9155 33.6923 6.9155 33.6702 6.9155C33.2764 6.8971 32.9377 6.73514 32.7353 6.47012C32.6396 6.34129 32.6617 6.16093 32.7905 6.06155C32.9193 5.96585 33.0997 5.98794 33.1991 6.11676C33.2948 6.24191 33.4825 6.32289 33.696 6.33393C33.9279 6.34497 34.1745 6.2824 34.4137 6.21983C34.5683 6.17934 34.7266 6.27504 34.7671 6.42964C34.8076 6.58423 34.7119 6.7425 34.5573 6.78299C34.3107 6.84557 34.0309 6.9155 33.7438 6.9155Z" fill="#282827"/>
<path d="M33.0666 86.7784L29.0765 87.0987C29.0287 87.1023 28.9882 87.1318 28.9698 87.1759C28.933 87.2643 28.8152 87.5661 28.9624 87.7244C29.3342 88.1293 30.2544 88.306 31.1489 88.306C31.966 88.306 32.7611 88.1587 33.085 87.9158C33.3758 87.6949 33.2396 87.014 33.2064 86.8815C33.188 86.8189 33.1291 86.7747 33.0666 86.7784Z" fill="#282827"/>
<path d="M32.3047 81.9381C32.3599 83.6056 33.7144 85.9576 32.8899 87.3563C32.5439 87.9416 30.1808 87.4263 29.3821 87.4851C29.1686 87.4999 28.9846 87.3858 28.9551 87.1612C28.8962 86.7195 29.4189 85.3576 29.9121 83.4399C30.1551 82.8583 30.3097 82.0302 30.9207 81.7357C31.2704 81.629 31.6532 81.8682 32.3047 81.9381Z" fill="#E6E7EA"/>
<path d="M30.3318 88.063C30.3134 88.063 30.2986 88.063 30.2802 88.0594C30.133 88.0336 30.0299 87.9011 30.041 87.7538C30.0447 87.7023 30.0373 87.6434 30.0299 87.5772C29.971 87.0398 29.9048 86.4324 29.2974 85.976C29.1686 85.8803 29.1428 85.6963 29.2422 85.5674C29.3379 85.4386 29.522 85.4128 29.6508 85.5122C30.1882 85.9208 30.4091 86.4288 30.5158 86.8889C31.1563 86.1232 32.2421 85.5049 32.8642 85.4533C33.0261 85.4386 33.166 85.5601 33.177 85.7184C33.1918 85.8803 33.0703 86.0202 32.912 86.0312C32.2826 86.0828 30.8544 87.0434 30.6152 87.8569C30.5747 87.9821 30.4606 88.063 30.3318 88.063Z" fill="#282827"/>
<path d="M43.0489 87.1796C43.0305 87.1355 42.99 87.106 42.9422 87.1023L38.9522 86.7821C38.8896 86.7784 38.8307 86.8189 38.816 86.8815C38.7865 87.014 38.6467 87.6949 38.9374 87.9158C39.2614 88.1624 40.0564 88.306 40.8736 88.306C41.768 88.306 42.6882 88.133 43.06 87.7244C43.1998 87.5698 43.0857 87.268 43.0489 87.1796Z" fill="#282827"/>
<path d="M39.7104 81.9381C39.6552 83.6056 38.3007 85.9576 39.1252 87.3563C39.4712 87.9416 41.8343 87.4263 42.633 87.4851C42.8465 87.4999 43.0305 87.3858 43.06 87.1612C43.1189 86.7195 42.5962 85.3576 42.103 83.4399C41.86 82.8583 41.7054 82.0302 41.0944 81.7357C40.7447 81.629 40.3619 81.8682 39.7104 81.9381Z" fill="#E6E7EA"/>
<path d="M41.6833 88.063C41.7017 88.063 41.7165 88.063 41.7349 88.0594C41.8821 88.0336 41.9852 87.9011 41.9741 87.7538C41.9704 87.7023 41.9778 87.6434 41.9852 87.5772C42.0441 87.0398 42.1103 86.4324 42.7176 85.976C42.8465 85.8803 42.8722 85.6963 42.7729 85.5674C42.6772 85.4386 42.4931 85.4128 42.3643 85.5122C41.8269 85.9208 41.606 86.4288 41.4993 86.8889C40.8588 86.1232 39.773 85.5049 39.1509 85.4533C38.989 85.4386 38.8491 85.5601 38.8381 85.7184C38.827 85.8766 38.9448 86.0202 39.1031 86.0312C39.7325 86.0828 41.1607 87.0434 41.3999 87.8569C41.4404 87.9821 41.5545 88.063 41.6833 88.063Z" fill="#282827"/>
<path d="M43.3066 38.6627V34.2825H43.0489H27.6263H27.3686V38.6627C26.7502 55.7822 26.1135 75.5261 26.6987 82.6338C34.3806 85.0411 41.5619 84.2239 46.3838 82.078C47.142 74.6501 44.5728 56.592 43.3066 38.6627Z" fill="#503D27"/>
<path d="M50.3664 33.5389L44.2158 16.7065C43.8955 15.8121 43.233 15.0796 42.3754 14.6673L39.2135 13.1472L36.0075 19.699L32.8015 13.1472L29.6397 14.6673C28.7821 15.0796 28.1195 15.8121 27.7993 16.7065L21.6486 33.6788L26.9711 36.2443C26.3564 53.1062 25.2301 69.2834 25.8043 76.2549C34.745 79.056 41.8968 79.0119 47.5101 76.5126C48.2647 69.1583 47.1936 53.4007 45.9494 36.0198L50.3664 33.5389Z" fill="#8F9EA1"/>
<path d="M29.6102 57.3502C28.2483 60.1035 29.1722 77.7788 29.3673 77.7162C35.6541 78.9935 41.9189 79.8106 47.8892 76.7518C47.8892 69.4712 48.2426 65.2897 47.326 57.0852C47.326 57.0815 31.712 53.0952 29.6102 57.3502Z" fill="#8F9EA1"/>
<path d="M40.7521 14.2183L38.3743 12.3926L36.0075 15.709L33.6407 12.3926L31.0384 14.1667L34.7192 21.3738L36.0075 20.7444L37.2958 21.3738L40.7521 14.2183Z" fill="white"/>
<path d="M34.5278 21.6977L30.5636 14.2219L33.6408 12.3926L37.3952 20.0634L34.5278 21.6977Z" fill="#8F9EA1"/>
<path d="M35.5143 27.587L41.0466 14.0269L38.3743 12.3926L31.5132 26.0816L35.5143 27.587Z" fill="#8F9EA1"/>
<path d="M38.5325 28.3048C38.5325 28.3048 42.217 18.7788 43.4906 15.3888C42.4747 14.5385 40.8183 13.7987 40.8183 13.7987L35.3744 27.3331L38.5325 28.3048Z" fill="#B9A268"/>
<path d="M25.0792 59.1943L28.1158 27.7527C32.3562 25.7503 38.2933 25.9417 43.6232 27.7527L48.4598 58.5575C44.2268 60.5709 37.951 60.7366 25.0792 59.1943Z" fill="#B9A268"/>
<path d="M31.3402 23.9062C34.8738 22.1873 35.2161 20.4278 35.2161 18.6647C35.2161 18.0832 35.4995 17.1261 35.4959 16.7654C35.4959 16.563 35.5989 16.2022 35.8051 16.3752C36.2099 16.7176 36.0075 17.9028 36.0075 19.2316C36.0075 20.6671 36.6921 22.9124 34.5057 23.0596C33.4567 24.0019 32.75 25.3417 31.8334 26.4313C31.5942 25.5994 31.3586 24.7712 31.3402 23.9062Z" fill="#E5D1B7"/>
<path d="M21.6486 33.6751C21.148 36.2517 20.5959 42.3214 21.8879 44.7802C23.1762 47.2316 28.8962 49.7456 31.6421 49.3812C33.2506 49.1677 36.6406 45.2366 36.6406 45.2366C36.6406 45.2366 35.4996 32.8506 34.4542 28.8532C34.053 27.3146 32.0985 22.9492 32.0985 22.9492C32.0985 22.9492 27.5821 26.5159 21.6486 33.6751Z" fill="#8F9EA1"/>
<path d="M40.6748 23.8657C37.1412 22.1468 36.7989 20.3873 36.7989 18.6242C36.7989 18.0427 36.5155 17.0856 36.5192 16.7249C36.5192 16.5225 36.4161 16.1618 36.21 16.3348C35.8051 16.6771 36.0075 17.9028 36.0075 19.2316C36.0075 20.6671 35.3229 22.8719 37.5093 23.0191C38.5583 23.9614 39.2651 25.3012 40.1816 26.3908C40.4209 25.5589 40.6564 24.7307 40.6748 23.8657Z" fill="#E5D1B7"/>
<path d="M50.3664 33.5389C51.0731 36.8848 51.2425 42.2956 49.9321 44.7802C48.6438 47.2316 43.1152 49.7456 40.3693 49.3812C38.7608 49.1677 35.3707 45.2366 35.3707 45.2366C35.3707 45.2366 36.5118 32.8506 37.5571 28.8532C37.9584 27.3146 39.9129 22.9492 39.9129 22.9492C39.9129 22.9492 48.4413 30.5059 50.3664 33.5389Z" fill="#8F9EA1"/>
</svg>
