<svg width="72" height="76" viewBox="0 0 72 76" fill="none" xmlns="http://www.w3.org/2000/svg">
<path d="M56.6093 72.5391C54.0573 71.2259 51.4557 69.1694 50.4274 69.6897C49.3992 70.2101 47.2807 67.3235 48.309 66.4687C49.3496 65.6139 50.0186 62.9008 51.5424 63.3344C52.0503 63.4831 53.2149 64.5733 54.3298 66.2581C55.8412 68.5376 58.0712 70.7675 59.4959 72.44C60.2268 73.2948 60.7471 74.001 60.3878 74.9053C60.1896 75.4009 59.818 74.8929 59.0127 74.3107C58.3685 73.8399 57.7491 73.1214 56.6093 72.5391Z" fill="#E5D1B7"/>
<path d="M31.4977 69.5782C33.9878 69.6897 36.1062 67.6952 36.1681 65.1555L36.2301 62.4548C36.292 59.8532 34.0869 57.7472 31.4481 57.9082L27.8554 58.1312C26.629 58.2179 25.4025 58.3047 24.176 58.4038C21.7107 58.6144 19.2578 58.8498 16.7181 59.1966C16.0863 59.2834 15.4421 59.3825 14.7855 59.494C14.1289 59.6055 13.4599 59.7293 12.7414 59.8904C12.3821 59.9771 12.0104 60.0638 11.614 60.1753C11.2176 60.2868 10.784 60.4231 10.2513 60.6337C9.97872 60.7452 9.6814 60.8691 9.29735 61.0921L9.14869 61.1788C9.09913 61.216 9.04958 61.2407 8.98764 61.2779L8.8142 61.3894L8.72748 61.4514L8.62837 61.5257C8.56642 61.5752 8.50448 61.6248 8.43015 61.6743C8.35582 61.7363 8.28149 61.7982 8.20716 61.8602C8.16999 61.8973 8.13282 61.9221 8.09566 61.9593L7.97177 62.0832L7.84789 62.2071L7.78595 62.269L7.71161 62.3557C7.37712 62.7398 6.94352 63.3964 6.72053 64.2636C6.60903 64.6848 6.55948 65.1803 6.57187 65.6139C6.57187 65.7254 6.58425 65.8369 6.59664 65.9484C6.60903 66.0599 6.62142 66.159 6.6462 66.2581C6.67097 66.3572 6.68336 66.4563 6.70814 66.5554L6.74531 66.6917L6.75769 66.7165C6.8568 66.989 6.95591 67.2492 7.05502 67.5218C7.50101 68.5748 8.16999 69.5287 8.9133 70.2844C9.65662 71.0401 10.4495 71.5976 11.23 72.0436C12.0104 72.4772 12.7661 72.7993 13.5095 73.0594L14.0669 73.2453C14.2528 73.3072 14.4262 73.3444 14.612 73.3939C14.9713 73.5054 15.3306 73.5674 15.6898 73.6541C18.5144 74.2364 21.116 74.2983 23.6681 74.2611C26.2201 74.1992 28.6978 73.9886 31.1508 73.7036C36.0567 73.1338 40.8386 72.2542 45.5711 71.3622L46.5498 71.164L45.7817 64.7591L44.7782 64.8458C42.3748 65.0812 40.0086 65.3042 37.6672 65.49C35.3257 65.6759 32.9967 65.8121 30.6924 65.8741C28.4005 65.936 26.121 65.9236 23.9406 65.775C22.8504 65.7006 21.785 65.6015 20.7815 65.4405C19.7781 65.2794 18.8118 65.0812 17.9941 64.8334C17.5853 64.7095 17.2136 64.5609 16.9039 64.4246C16.5942 64.2759 16.3464 64.1397 16.1854 64.0158C16.1482 63.991 16.1234 63.9538 16.0863 63.9291C16.0615 63.9043 16.0491 63.8795 16.0243 63.8671L16.012 63.8547V63.8423C16.012 63.83 16.012 63.83 15.9996 63.83L15.9872 63.8176C15.9996 63.8176 15.9748 63.83 15.9624 63.8423L15.9252 63.8795C15.4916 64.2636 15.2562 64.3379 15.3677 64.2883C15.3925 64.276 15.4049 64.2759 15.4297 64.2636L15.4545 64.2512H15.4669L11.2919 65.4653C11.2795 65.4653 11.2547 65.4653 11.2547 65.4653C11.2176 65.4653 11.2547 65.4529 11.3291 65.5024C11.4158 65.552 11.5521 65.6511 11.676 65.7997C12.2582 66.4316 12.9396 67.8562 13.5838 69.7393L13.6457 69.9127C13.6581 69.9499 13.6581 69.9499 13.6581 69.9499C13.6581 69.9499 13.6581 69.9499 13.6705 69.9499L13.7325 69.9375L13.9431 69.9004C14.1041 69.8756 14.3147 69.8384 14.5377 69.8136C14.9837 69.7517 15.4916 69.7021 16.012 69.665C16.5323 69.6278 17.0774 69.5906 17.6349 69.5659C19.8524 69.4544 22.1938 69.4296 24.5353 69.4544C25.7122 69.4668 26.8767 69.4791 28.066 69.5039L29.8376 69.5411C30.4075 69.5411 31.0393 69.5535 31.4977 69.5782Z" fill="#5E8AB4"/>
<path d="M46.0419 66.1342L45.9675 66.159L46.4507 70.1853H46.525C46.6985 70.1977 47.9125 70.1233 49.0647 69.9995C49.6345 69.9375 50.2044 69.8632 50.5885 69.8012C50.638 69.7889 50.6876 69.7889 50.7247 69.7765C50.7619 69.7641 50.7991 69.7641 50.8362 69.7517C50.9106 69.7269 50.9601 69.7145 51.0097 69.6897C51.0592 69.665 51.0592 69.6402 51.084 69.603C51.0964 69.5659 51.1212 69.5411 51.1336 69.5039L52.1742 66.2829C52.1866 66.2457 52.1246 66.1838 51.9884 66.1218C51.9264 66.0847 51.8397 66.0475 51.7282 66.0103C51.6539 65.9856 51.5672 65.9608 51.4804 65.9236C51.4061 65.8988 51.3194 65.8741 51.2327 65.8617C51.1955 65.8493 51.1583 65.8493 51.1088 65.8369C51.0716 65.8245 51.0345 65.8245 50.9973 65.8121C50.923 65.7997 50.8362 65.7874 50.7619 65.775C50.6876 65.7626 50.6132 65.7626 50.5389 65.7502C49.9319 65.6882 49.3001 65.713 48.6682 65.7626C47.417 65.8617 46.2153 66.0847 46.0419 66.1342Z" fill="#E5D1B7"/>
<path d="M15.5164 67.3607C18.3782 67.1749 21.5744 66.3077 22.3178 67.1873C23.0611 68.0669 26.1458 66.2581 25.5388 65.0564C24.9317 63.8547 25.3777 61.1045 23.8168 60.9063C23.2964 60.8443 21.7974 61.3894 20.1002 62.492C17.8083 63.9786 14.8846 65.1555 12.9024 66.1219C11.8866 66.6174 11.1309 67.0634 11.1061 68.0297C11.0937 68.5748 11.6388 68.2403 12.6051 68.0173C13.3856 67.8563 14.2404 67.4474 15.5164 67.3607Z" fill="#E5D1B7"/>
<path d="M37.1717 57.0905C35.8585 57.0534 34.6692 57.5613 33.8268 58.3913C32.972 59.2214 32.4764 60.3859 32.5136 61.6619L32.6003 64.3626C32.6375 65.6634 33.2197 66.8032 34.0869 67.6084C34.9665 68.4013 36.131 68.8597 37.3947 68.7606L37.7663 68.7358L38.1999 68.711L39.0795 68.6491L40.8387 68.55C42.0156 68.488 43.1925 68.4385 44.357 68.3889C46.6861 68.3146 49.0151 68.2898 51.2575 68.3765C52.3724 68.4261 53.475 68.488 54.4785 68.6119C54.9864 68.6738 55.4696 68.7482 55.8784 68.8225C56.089 68.8597 56.2748 68.9092 56.4359 68.9464C56.5969 68.9836 56.7084 69.0207 56.758 69.0331C56.7828 69.0331 56.7828 69.0331 56.758 68.9959L56.5722 68.7977C56.4731 68.6862 56.3368 68.5128 56.1881 68.2279C56.0395 67.9553 55.9032 67.5465 55.866 67.1377C55.8165 66.7164 55.8784 66.32 55.9651 66.0475C55.9775 65.9855 56.0147 65.9112 56.0271 65.8616C56.0518 65.8121 56.0642 65.7501 56.089 65.713C56.1014 65.6758 56.1262 65.6386 56.151 65.6015C56.1757 65.5643 56.1881 65.5395 56.2005 65.5148C56.2501 65.4528 56.2501 65.4404 56.2996 65.3909C56.3244 65.3537 56.3616 65.3165 56.3863 65.2794C56.4235 65.2422 56.4359 65.2174 56.4731 65.1927L56.5474 65.1183C56.5722 65.0935 56.5969 65.0812 56.6217 65.0564C56.6589 65.0192 56.7084 64.9944 56.7332 64.982C56.8075 64.9449 56.8323 64.9325 56.8571 64.9325C56.8695 64.9325 56.8695 64.9449 56.8447 64.9697C56.7952 65.0068 56.6837 65.0688 56.535 65.1307C56.2377 65.2422 55.8041 65.3537 55.3333 65.4404C54.3918 65.6139 53.3016 65.6882 52.199 65.7254C51.084 65.7625 49.9443 65.7501 48.7798 65.713C46.4631 65.6386 44.0969 65.4528 41.7431 65.2174C37.0106 64.7343 32.2534 64.0529 27.5086 63.26L26.5299 63.1114L25.0433 69.3924L26.022 69.6525C30.7916 70.8914 35.5983 72.0188 40.5166 72.9603C42.9819 73.431 45.4596 73.8523 48.0364 74.162C49.3249 74.323 50.6257 74.4469 51.9884 74.5212C52.6698 74.5584 53.3635 74.5832 54.0821 74.5832C54.8006 74.5832 55.5439 74.5584 56.3368 74.4965C57.1297 74.4345 57.9721 74.323 58.9632 74.0876C59.4587 73.9638 59.9914 73.8027 60.5861 73.5549C61.1931 73.2948 61.8745 72.9479 62.6302 72.3656C63.0018 72.0683 63.3983 71.6966 63.7699 71.2507C63.9558 71.0277 64.154 70.7551 64.2655 70.5693C64.3894 70.3835 64.5256 70.1481 64.6495 69.9127C64.9097 69.4048 65.1574 68.7853 65.3061 68.0172C65.3185 67.9181 65.3433 67.819 65.3557 67.7199C65.368 67.6208 65.3804 67.5093 65.3928 67.4102C65.4052 67.2987 65.4052 67.1996 65.4176 67.0881C65.4176 66.9766 65.43 66.8651 65.43 66.7536C65.43 66.32 65.3804 65.8492 65.2937 65.4156C65.2689 65.3042 65.2442 65.1927 65.2194 65.0812C65.1946 64.9697 65.1574 64.8706 65.1327 64.7591C65.0955 64.6599 65.0583 64.5484 65.0212 64.4493C64.984 64.3502 64.9468 64.2511 64.9097 64.1644C64.8725 64.0653 64.8229 63.9786 64.7858 63.8795C64.7362 63.7927 64.6991 63.706 64.6495 63.6193C64.6 63.5326 64.5504 63.4459 64.5132 63.3715C64.4637 63.2848 64.4141 63.2229 64.3646 63.1361C63.9681 62.5291 63.5593 62.0831 63.1877 61.7362C62.816 61.3894 62.4815 61.1416 62.1594 60.9186C61.8497 60.708 61.5524 60.5346 61.2798 60.3859C60.7347 60.0886 60.264 59.8903 59.818 59.7169C59.372 59.5435 58.9632 59.4072 58.5667 59.2833C57.7739 59.0479 57.0429 58.8621 56.3244 58.7134C54.9121 58.4161 53.5741 58.2055 52.2609 58.0321C49.6346 57.6976 47.1073 57.4994 44.5924 57.3631C43.3288 57.2888 42.0775 57.2392 40.8263 57.202L38.9556 57.1525L37.1717 57.0905Z" fill="#5E8AB4"/>
<path d="M25.2787 68.0049H25.353L26.2945 64.0653L26.2202 64.0406C26.0591 63.9786 24.8946 63.6194 23.7549 63.3468C22.6151 63.0743 21.4878 62.8884 21.4134 63.1981L20.5462 66.4811C20.4719 66.8032 21.5745 67.1873 22.7266 67.4846C23.8911 67.7819 25.1052 67.9925 25.2787 68.0049Z" fill="#E5D1B7"/>
<path d="M49.9318 28.1385C49.8203 25.797 46.8595 24.1865 44.8773 23.8644C39.9343 23.8644 34.9912 23.8644 30.0606 23.8644C28.0908 24.1989 25.1175 25.8218 25.006 28.1385C25.5016 33.2054 25.9104 38.2847 26.8891 43.2897C27.6944 47.4027 28.8961 51.59 28.7722 55.8145C34.9045 56.5702 40.3307 56.4092 46.3887 55.1208C46.302 50.7228 47.3178 46.3001 48.1231 42.0013C48.9655 37.3927 49.4858 32.7966 49.9318 28.1385Z" fill="#E5D1B7"/>
<path d="M40.6032 17.8065C38.5839 18.1162 36.354 18.1162 34.347 17.8065C34.6072 21.6593 32.2905 23.0468 28.7722 23.8521C31.6711 24.6945 34.57 25.5493 37.4689 26.3917C40.3678 25.5493 43.2792 24.6945 46.1781 23.8521C42.6102 23.0344 40.3555 21.6717 40.6032 17.8065Z" fill="#E5D1B7"/>
<path d="M51.8025 27.2341C50.7495 23.9635 47.4913 24.2237 44.8401 23.2822C43.4898 26.1439 40.7271 28.411 37.4565 28.411C34.186 28.4234 31.4233 26.1563 30.073 23.2822C27.3103 24.2733 24.3742 23.9883 23.1106 27.2341C21.6363 29.9844 23.0734 34.0726 23.6309 36.8724C24.9565 43.5499 28.3386 51.4414 26.344 58.2303C30.2216 59.4815 33.4303 61.1788 37.6176 61.4389C40.3307 61.3646 42.858 60.8815 45.2366 59.5435C46.4506 58.8621 48.7178 57.871 48.854 57.5985C49.7212 55.8145 49.6717 42.8189 51.2698 36.2282C51.9512 33.5647 53.2148 29.8853 51.8025 27.2341Z" fill="#F2F2F0"/>
<path d="M57.9968 42.5341C57.3774 40.2793 56.5102 37.4424 55.5934 34.7912C54.6767 32.1401 53.7228 29.6747 52.9423 28.1509C52.6697 27.5563 52.4343 27.0731 52.2114 26.7015C50.9601 25.091 49.3124 24.5087 47.9621 24.8308C46.6117 25.1529 45.5711 26.367 45.5215 28.3615C45.5091 28.8571 45.5835 29.5137 45.7445 30.3189C46.0047 32.0657 46.8099 34.6302 47.7143 37.2441C48.6063 39.8581 49.5974 42.5093 50.254 44.4295C50.6132 45.4702 51.1707 47.1178 51.7778 49.0133C52.0875 49.9548 52.3972 50.9707 52.7069 51.9865C53.0042 53.0024 53.3015 54.043 53.5369 54.9846C53.5617 55.0961 53.5865 55.22 53.6237 55.3314C53.6484 55.4429 53.6732 55.5544 53.698 55.6659C53.7475 55.8889 53.7723 56.0748 53.7971 56.211C53.7971 56.2358 53.8095 56.2606 53.8095 56.2854C53.8095 56.3101 53.8095 56.2978 53.8095 56.2978H53.8219V56.2606C53.8219 56.2358 53.8343 56.211 53.8343 56.1863V56.1615L53.8466 56.0995C53.859 56.05 53.8714 56.0128 53.8838 55.9633C53.8962 55.9261 53.9086 55.8766 53.9334 55.8394L53.9581 55.7898L53.9705 55.7774C53.9953 55.7279 54.0201 55.6783 54.0449 55.6412C54.0696 55.6164 54.0573 55.6164 54.0696 55.604C54.0696 55.5916 54.082 55.5916 54.0944 55.5792C54.1068 55.5668 54.1068 55.5668 54.1192 55.5668V55.5792C54.1192 55.5792 54.1192 55.5916 54.1068 55.5916L54.0944 55.6164L54.0573 55.6659C54.0201 55.7031 53.9829 55.7527 53.9334 55.8022C53.8838 55.8518 53.8343 55.9013 53.7847 55.9509C53.7228 56.0004 53.6608 56.05 53.5989 56.1119C53.3387 56.3225 53.0662 56.5208 52.7936 56.7066C52.2361 57.0782 51.7158 57.3756 51.3318 57.5986C50.9477 57.8216 50.6876 57.9578 50.6132 58.0074C49.8204 58.3543 49.3868 58.5277 49.1638 58.6268C48.9408 58.7135 48.916 58.7259 48.916 58.7259L50.7495 63.446C50.7495 63.446 50.8486 63.4212 51.1459 63.3097C51.4433 63.2106 51.9264 63.0371 52.6821 62.7274C53.0414 62.6159 53.5617 62.4425 54.2183 62.1947C54.5404 62.0708 54.8997 61.9222 55.2961 61.7487C55.6925 61.5753 56.1138 61.3771 56.5721 61.1293C57.0305 60.8815 57.5384 60.5842 58.1083 60.1134C58.1455 60.0887 58.1826 60.0639 58.2198 60.0267L58.3313 59.9276C58.4056 59.8533 58.48 59.7913 58.5543 59.717L58.6162 59.6674L58.6782 59.6055L58.8021 59.4692C58.8888 59.3825 58.9631 59.2958 59.0498 59.1967C59.1366 59.0852 59.2233 58.9613 59.31 58.8374C59.3472 58.7755 59.3967 58.7135 59.4339 58.6516C59.4834 58.5773 59.5206 58.4905 59.5702 58.4162C59.6073 58.3295 59.6569 58.2552 59.694 58.1684L59.756 58.0445C59.7684 58.0198 59.7684 58.0074 59.7808 57.9702L59.8179 57.8587C59.8675 57.7101 59.917 57.549 59.9542 57.388L59.979 57.2765L59.9914 57.2021L60.0161 57.0658C60.0285 56.9667 60.0409 56.88 60.0533 56.7809L60.0657 56.719V56.6694L60.0781 56.5703L60.0905 56.3721V56.273V56.1986C60.0905 56.0995 60.0905 55.988 60.1029 55.8889C60.1029 55.8022 60.1029 55.7155 60.1029 55.6164C60.1029 55.2571 60.0781 54.9598 60.0657 54.6501C60.0285 54.0554 59.9666 53.4979 59.9047 52.9405C59.7808 51.8379 59.6197 50.7848 59.4587 49.7566C59.2976 48.7283 59.1242 47.7497 58.9507 46.8453C58.5915 45.0242 58.257 43.5004 57.9968 42.5341Z" fill="#F2F2F0"/>
<path d="M48.5691 63.5946C49.2257 63.3592 49.8823 63.1238 50.5265 62.8761L49.2257 59.5312C48.6187 59.7665 47.9992 59.9895 47.3922 60.2125C46.9834 60.3612 46.7728 60.8072 46.909 61.2284L47.5161 63.0991C47.6523 63.5203 48.1355 63.7557 48.5691 63.5946Z" fill="#E5D1B7"/>
<path d="M25.2043 45.4453C25.8237 43.3145 26.5794 40.589 27.236 37.9874C27.8926 35.3858 28.4624 32.8957 28.6731 31.2728C28.7845 30.641 28.8589 30.1083 28.896 29.6871C28.7845 27.6677 27.7687 26.2554 26.4927 25.7351C25.2043 25.2148 23.6557 25.6112 22.4664 27.2465C22.1691 27.6553 21.8593 28.25 21.5249 29.0057C20.7568 30.5666 20.0011 33.0939 19.3197 35.7203C18.6383 38.3467 18.0561 41.0845 17.6225 43.0543C17.3871 44.1197 17.003 45.8046 16.6066 47.7744C16.4084 48.7531 16.1978 49.8061 15.9996 50.8839C15.9004 51.429 15.8013 51.9741 15.7146 52.5316C15.6279 53.089 15.5412 53.6589 15.4792 54.2412C15.4668 54.3898 15.4421 54.5385 15.4297 54.6872C15.4173 54.8482 15.4049 54.9969 15.3925 55.1579C15.3925 55.2447 15.3801 55.319 15.3801 55.4057L15.3677 55.5296V55.6659C15.3677 55.7526 15.3677 55.8517 15.3553 55.9384C15.3553 56.0375 15.3553 56.149 15.3553 56.2481C15.3553 56.2977 15.3553 56.3596 15.3677 56.434L15.3801 56.6322L15.3925 56.7313L15.4049 56.8676C15.4173 56.9543 15.4297 57.0534 15.4421 57.1401L15.4545 57.2021L15.4668 57.2516L15.4792 57.3012C15.4916 57.3755 15.5164 57.4498 15.5412 57.5242C15.566 57.5985 15.5783 57.6728 15.6031 57.7471L15.6403 57.8586L15.6651 57.9206C15.7394 58.0816 15.8137 58.2427 15.9004 58.3914C15.9252 58.4285 15.9376 58.4657 15.9624 58.5029L16.0243 58.5896L16.1482 58.763C16.2225 58.8745 16.3217 58.9984 16.3836 59.0851C16.5323 59.2586 16.6933 59.4444 16.842 59.5683C16.9163 59.6426 16.9906 59.7045 17.065 59.7665C17.1393 59.8284 17.2012 59.878 17.2756 59.9399C17.3499 59.9895 17.4118 60.0514 17.4738 60.101C17.5357 60.1505 17.5977 60.2001 17.672 60.2372C17.7959 60.324 17.9322 60.4231 18.0437 60.4974C18.1676 60.5717 18.2914 60.6585 18.4029 60.7204C18.8737 61.0053 19.2825 61.2159 19.679 61.4142C20.4594 61.7858 21.0913 62.046 21.562 62.2318C22.0328 62.4176 22.3425 62.5167 22.4292 62.5415C23.3336 62.9256 23.8043 63.1114 24.0521 63.2105C24.2999 63.3096 24.3247 63.3096 24.3247 63.3096L26.1582 58.5896C26.1582 58.5896 26.0715 58.5524 25.8113 58.4285C25.5635 58.317 25.1299 58.1188 24.4857 57.8091C24.2132 57.648 23.8167 57.4003 23.346 57.1029C22.8876 56.8056 22.3425 56.434 21.8593 56.0251C21.624 55.8269 21.401 55.6163 21.2895 55.4553C21.2647 55.4181 21.2275 55.3685 21.2275 55.3562C21.2275 55.3438 21.2151 55.3314 21.2151 55.319C21.2151 55.3066 21.2151 55.3066 21.2151 55.3066C21.2151 55.3066 21.2151 55.3066 21.2027 55.3066L21.1904 55.319L21.0789 55.4057C21.0045 55.4677 20.9302 55.5296 20.8559 55.5791L20.7444 55.6659C20.7072 55.6906 20.6577 55.7278 20.6329 55.7402C20.5214 55.8393 20.3975 55.926 20.2612 56.0004C20.1993 56.0375 20.1249 56.0747 20.063 56.1119C20.0134 56.149 19.9639 56.1738 19.9143 56.1986C19.8648 56.2234 19.8152 56.2481 19.7533 56.2729C19.7285 56.2853 19.6913 56.2977 19.6666 56.2977L19.617 56.3101C20.3232 56.0499 18.6383 56.6817 18.8241 56.6074L18.8489 56.595L18.8985 56.5702C19.1462 56.4711 19.3569 56.4711 19.7409 56.3968C19.9143 56.372 20.0878 56.3596 20.2612 56.3472C20.3108 56.3472 20.3479 56.3472 20.3975 56.3472L20.5585 56.3349C20.67 56.3225 20.7815 56.3225 20.893 56.3101C21.116 56.2977 21.339 56.2977 21.562 56.2977H21.6487C21.6735 56.2977 21.6611 56.2977 21.6611 56.2977V56.2853C21.6735 56.2729 21.6735 56.2481 21.6735 56.2357C21.6983 56.1243 21.7355 55.9756 21.785 55.7898C21.8841 55.4305 21.9956 55.0093 22.1319 54.5757C22.3921 53.7085 22.7018 52.8041 22.9991 51.9121C23.3088 51.0202 23.6061 50.1406 23.8911 49.3353C24.4609 47.7496 24.9441 46.3497 25.2043 45.4453Z" fill="#F2F2F0"/>
<path d="M27.7191 59.816C27.1121 59.6054 26.4927 59.3824 25.898 59.147L24.5972 62.4919C25.2414 62.7397 25.8856 62.9875 26.5422 63.2105C26.9758 63.3591 27.4466 63.1361 27.5953 62.7149L28.2023 60.8443C28.3386 60.4107 28.128 59.9523 27.7191 59.816Z" fill="#E5D1B7"/>
<path d="M41.7678 60.993C42.1643 60.77 42.5855 60.6337 43.0191 60.5222C43.4527 60.4107 43.8987 60.3488 44.3447 60.2992C44.7906 60.2373 45.249 60.2001 45.7074 60.1753C46.1658 60.1506 46.6242 60.1382 47.1073 60.1629C48.1603 60.2249 48.9532 61.1293 48.8913 62.1823C48.8541 62.7522 48.5692 63.2477 48.1603 63.5698C47.7887 63.8671 47.3922 64.1149 47.0082 64.3503C46.6118 64.5857 46.2153 64.8087 45.8189 65.0193C45.4101 65.2299 45.0136 65.4281 44.5924 65.5768C44.1712 65.7254 43.75 65.8617 43.2916 65.8865C41.8422 65.998 40.5785 64.9078 40.467 63.4583C40.3927 62.4301 40.9254 61.4885 41.7678 60.993Z" fill="#E5D1B7"/>
<path d="M38.1256 61.6744C37.7911 61.6744 37.5186 61.4018 37.5186 61.0673C37.5186 60.7328 37.7911 60.4603 38.1256 60.4603C38.9061 60.4603 39.4264 60.3488 39.9839 60.2249C41.0617 59.9895 42.1767 59.7417 44.9765 60.2744C45.2986 60.3364 45.5216 60.6461 45.4596 60.9806C45.3977 61.3027 45.0756 61.5257 44.7535 61.4637C42.2014 60.9806 41.2475 61.1912 40.244 61.4018C39.6494 61.5381 39.0423 61.6744 38.1256 61.6744Z" fill="#E5D1B7"/>
<path d="M36.6018 65.0936C36.3788 65.0936 36.1558 65.0812 35.9328 65.0564C35.6231 65.0192 35.4001 64.7467 35.4373 64.437C35.4744 64.1272 35.747 63.9043 36.0567 63.9414C38.0389 64.1768 39.5131 63.0618 40.4794 62.3185C40.8511 62.0336 41.1484 61.8106 41.421 61.6991C41.7059 61.5876 42.0404 61.7239 42.1519 62.0088C42.2634 62.2937 42.1271 62.6282 41.8422 62.7397C41.7059 62.7893 41.421 63.0123 41.1484 63.2105C40.2193 63.929 38.6831 65.0936 36.6018 65.0936Z" fill="#E5D1B7"/>
<path d="M36.6389 64.8829C36.2053 64.8829 35.7965 64.8334 35.4496 64.7343C35.1523 64.6476 34.9788 64.3378 35.0656 64.0405C35.1523 63.7432 35.462 63.5697 35.7593 63.6565C37.3698 64.1272 41.0121 62.8884 41.7554 62.2689C41.9908 62.0707 42.35 62.1079 42.5483 62.3433C42.7465 62.5787 42.7217 62.9379 42.4739 63.1361C41.7058 63.768 38.8069 64.8829 36.6389 64.8829Z" fill="#E5D1B7"/>
<path d="M38.584 65.6882C38.0761 65.6882 37.5434 65.6387 36.9859 65.5396C36.6762 65.4776 36.4779 65.1927 36.5399 64.883C36.6018 64.5732 36.8868 64.375 37.1965 64.437C39.476 64.8582 41.2104 64.152 42.0404 63.6937C42.313 63.545 42.6475 63.6441 42.8085 63.9167C42.9572 64.1892 42.8581 64.5237 42.5855 64.6847C41.8174 65.0936 40.4175 65.6882 38.584 65.6882Z" fill="#E5D1B7"/>
<path d="M40.5785 66.2952C39.6989 66.2952 38.7822 66.2085 37.9522 66.0351C37.6548 65.9731 37.4566 65.6758 37.5186 65.3661C37.5805 65.0688 37.8778 64.8705 38.1875 64.9325C40.4918 65.428 43.081 65.044 43.5642 64.6476C43.7996 64.4493 44.1588 64.4865 44.357 64.7219C44.5553 64.9573 44.5181 65.3165 44.2827 65.5147C43.6757 66.0103 42.189 66.2952 40.5785 66.2952Z" fill="#E5D1B7"/>
<path d="M31.6959 65.8988C31.2375 65.8616 30.8163 65.7377 30.3951 65.5891C29.9739 65.428 29.5775 65.2298 29.1687 65.0316C28.7598 64.821 28.3634 64.6104 27.9794 64.3626C27.5829 64.1148 27.1989 63.8671 26.8272 63.5821C25.9972 62.9379 25.8485 61.7362 26.4927 60.9062C26.8396 60.4602 27.3599 60.2124 27.8802 60.1753C28.351 60.1505 28.8218 60.1629 29.2802 60.1877C29.7385 60.2124 30.1969 60.262 30.6429 60.3116C31.0889 60.3735 31.5349 60.4354 31.9685 60.5345C32.4021 60.646 32.8233 60.7823 33.2197 61.0053C34.471 61.7362 34.9046 63.3468 34.1736 64.598C33.6409 65.49 32.6622 65.9607 31.6959 65.8988Z" fill="#E5D1B7"/>
<path d="M36.8496 61.6744C35.9328 61.6744 35.3258 61.5381 34.7311 61.4142C33.7277 61.1912 32.7861 60.9806 30.2217 61.4761C29.8996 61.5381 29.5775 61.3275 29.5155 60.993C29.4536 60.6709 29.6642 60.3488 29.9987 60.2868C32.7985 59.7541 33.9135 60.0019 34.9913 60.2373C35.5488 60.3612 36.0691 60.4727 36.8496 60.4727C37.1841 60.4727 37.4566 60.7452 37.4566 61.0797C37.4566 61.4018 37.1841 61.6744 36.8496 61.6744Z" fill="#E5D1B7"/>
<path d="M38.3733 65.0935C36.2921 65.0935 34.7559 63.929 33.802 63.2105C33.5294 62.9999 33.2445 62.7893 33.1082 62.7397C32.8233 62.6282 32.687 62.2937 32.7985 62.0088C32.91 61.7238 33.2445 61.5876 33.5294 61.6991C33.802 61.8106 34.0993 62.0336 34.4709 62.3185C35.4496 63.0618 36.9239 64.1768 38.8937 63.9414C39.2034 63.9042 39.4759 64.1272 39.5131 64.4369C39.5503 64.7466 39.3273 65.0192 39.0175 65.0564C38.8193 65.0811 38.5963 65.0935 38.3733 65.0935Z" fill="#E5D1B7"/>
<path d="M38.3362 64.8829C36.1682 64.8829 33.2569 63.768 32.5011 63.1238C32.2658 62.9255 32.2286 62.5663 32.4268 62.3309C32.625 62.0955 32.9843 62.0583 33.2197 62.2566C33.963 62.876 37.6052 64.1272 39.2158 63.6441C39.5131 63.5574 39.8228 63.7308 39.9095 64.0281C39.9962 64.3255 39.8228 64.6352 39.5255 64.7219C39.1786 64.8334 38.7821 64.8829 38.3362 64.8829Z" fill="#E5D1B7"/>
<path d="M36.3912 65.6882C34.5576 65.6882 33.1453 65.0936 32.3896 64.6724C32.1171 64.5237 32.018 64.1768 32.1666 63.9043C32.3153 63.6317 32.6622 63.5326 32.9347 63.6813C33.7648 64.1396 35.5116 64.8582 37.7787 64.4246C38.0884 64.3626 38.3733 64.5732 38.4353 64.8706C38.4972 65.1803 38.2866 65.4652 37.9893 65.5272C37.4318 65.6511 36.8991 65.6882 36.3912 65.6882Z" fill="#E5D1B7"/>
<path d="M34.3966 66.2952C32.7861 66.2952 31.2995 66.0103 30.6924 65.5147C30.4571 65.3165 30.4199 64.9697 30.6181 64.7219C30.8163 64.4865 31.1632 64.4493 31.411 64.6476C31.8817 65.044 34.4833 65.428 36.7876 64.9325C37.0849 64.8705 37.3946 65.0564 37.4566 65.3661C37.5185 65.6634 37.3327 65.9731 37.023 66.0351C36.193 66.2085 35.2762 66.2952 34.3966 66.2952Z" fill="#E5D1B7"/>
<path d="M43.8243 11.0918C43.3164 13.9288 41.805 18.9214 37.4937 19.0949C33.1701 18.9214 31.6587 13.9164 31.1508 11.0795C31.1508 11.0671 31.1508 11.0671 31.1508 11.0547C31.1508 11.0547 29.8872 2.50657 37.4937 2.50657C45.0879 2.49419 43.8243 11.0918 43.8243 11.0918Z" fill="#E5D1B7"/>
<path d="M41.6687 2.84107C39.8104 -0.0330779 35.685 0.313803 32.9223 1.92432C30.9649 3.06406 29.0819 7.73455 31.0393 8.61414C33.6161 9.75389 40.2935 7.53633 41.6687 4.92235C42.3748 6.45853 43.5145 7.22662 43.8367 8.60175C43.9605 8.58936 44.8897 3.75782 41.6687 2.84107Z" fill="#D3A051"/>
</svg>
